<svg data-v-423bf9ae="" xmlns="http://www.w3.org/2000/svg" viewBox="0 0 886 90" class="iconLeft"><!----><!----><!----><g data-v-423bf9ae="" id="d28fbfe5-aa5b-4956-b36a-8ab165c2450f" fill="#0D3721" transform="matrix(3.651013266998149,0,0,3.651013266998149,129.95449313216386,3.5975083630897586)"><path d="M6.01 15.44L0.92 15.44L0.92 15.44Q0.77 15.44 0.78 15.27L0.78 15.27L1.64 5.19L1.64 5.19Q1.65 5.04 1.82 4.82L1.82 4.82L1.82 4.82Q1.99 4.59 2.17 4.47L2.17 4.47L2.17 4.47Q2.35 4.34 2.46 4.31L2.46 4.31L2.46 4.31Q2.72 4.24 2.70 4.47L2.70 4.47L1.86 14.38L6.79 14.38L6.79 14.38Q7 14.38 6.90 14.64L6.90 14.64L6.90 14.64Q6.79 14.99 6.48 15.22L6.48 15.22L6.48 15.22Q6.16 15.44 6.01 15.44L6.01 15.44ZM14.50 13.96L14.50 13.96L14.50 13.96Q14.67 13.93 14.70 14.06L14.70 14.06L14.70 14.06Q14.73 14.20 14.58 14.42L14.58 14.42L14.58 14.42Q14.43 14.64 14.08 14.92L14.08 14.92L14.08 14.92Q13.73 15.20 13.34 15.36L13.34 15.36L13.34 15.36Q12.57 15.67 12.39 15.08L12.39 15.08L12.39 15.08Q12.31 14.84 12.32 14.20L12.32 14.20L12.32 14.20Q11.59 15.08 10.85 15.34L10.85 15.34L10.85 15.34Q10.11 15.61 9.46 15.43L9.46 15.43L9.46 15.43Q7.46 14.87 8.26 10.81L8.26 10.81L8.26 10.81Q8.53 9.46 9.20 8.60L9.20 8.60L9.20 8.60Q10.35 7.11 12.01 7.34L12.01 7.34L12.01 7.34Q12.71 7.42 13.10 7.85L13.10 7.85L13.10 7.85Q13.43 7.42 13.78 7.34L13.78 7.34L13.78 7.34Q13.89 7.31 13.95 7.36L13.95 7.36L13.95 7.36Q14.01 7.41 14 7.52L14 7.52L14 7.52Q13.19 13.44 13.43 14.18L13.43 14.18L13.43 14.18Q13.54 14.52 13.79 14.39L13.79 14.39L13.79 14.39Q13.90 14.34 14.11 14.16L14.11 14.16L14.11 14.16Q14.32 13.99 14.50 13.96ZM12.39 12.80L12.39 12.80L12.39 12.80Q12.49 11.68 12.53 11.37L12.53 11.37L12.53 11.37Q12.89 8.62 11.17 8.40L11.17 8.40L11.17 8.40Q10.75 8.34 10.44 8.41L10.44 8.41L10.44 8.41Q10.02 8.50 9.87 8.68L9.87 8.68L9.87 8.68Q9.52 9.13 9.30 10.28L9.30 10.28L9.30 10.28Q9.07 11.42 9.10 12.31L9.10 12.31L9.10 12.31Q9.18 14.04 10.33 14.36L10.33 14.36L10.33 14.36Q11.21 14.62 11.69 14.04L11.69 14.04L11.69 14.04Q12.04 13.62 12.39 12.80ZM16.55 4.02L16.55 4.02Q16.56 3.85 16.73 3.63L16.73 3.63L16.73 3.63Q16.90 3.40 17.08 3.28L17.08 3.28L17.08 3.28Q17.26 3.16 17.37 3.14L17.37 3.14L17.37 3.14Q17.63 3.07 17.61 3.29L17.61 3.29L16.90 11.03L20.90 7.57L20.90 7.57Q21.11 7.39 21.29 7.34L21.29 7.34L21.29 7.34Q21.48 7.29 21.52 7.41L21.52 7.41L21.52 7.41Q21.56 7.53 21.44 7.75L21.44 7.75L21.44 7.75Q21.32 7.97 21.10 8.15L21.10 8.15L18.48 10.42L21.36 14.43L21.36 14.43Q21.43 14.53 21.34 14.73L21.34 14.73L21.34 14.73Q21.24 14.94 21.03 15.13L21.03 15.13L21.03 15.13Q20.82 15.33 20.62 15.41L20.62 15.41L20.62 15.41Q20.43 15.48 20.36 15.39L20.36 15.39L17.44 11.33L17.44 11.33Q17.44 11.33 17.43 11.31L17.43 11.31L16.83 11.84L16.58 14.55L16.58 14.55Q16.56 14.70 16.39 14.93L16.39 14.93L16.39 14.93Q16.23 15.16 16.04 15.28L16.04 15.28L16.04 15.28Q15.86 15.40 15.75 15.43L15.75 15.43L15.75 15.43Q15.50 15.50 15.51 15.27L15.51 15.27L16.55 4.02ZM27.79 11.73L23.73 11.63L23.73 11.63Q23.67 14.22 25.98 14.38L25.98 14.38L25.98 14.38Q26.47 14.42 26.87 14.35L26.87 14.35L26.87 14.35Q27.37 14.27 27.43 14.15L27.43 14.15L27.43 14.15Q27.54 13.94 27.76 13.75L27.76 13.75L27.76 13.75Q27.97 13.55 28.15 13.49L28.15 13.49L28.15 13.49Q28.34 13.43 28.41 13.54L28.41 13.54L28.41 13.54Q28.50 13.72 28.14 14.20L28.14 14.20L28.14 14.20Q27.78 14.67 27.39 14.95L27.39 14.95L27.39 14.95Q27.01 15.22 26.64 15.32L26.64 15.32L26.64 15.32Q25.83 15.54 25.17 15.44L25.17 15.44L25.17 15.44Q22.41 15.26 22.69 11.96L22.69 11.96L22.69 11.96Q22.78 10.93 23.00 10.18L23.00 10.18L23.00 10.18Q23.23 9.44 23.72 8.78L23.72 8.78L23.72 8.78Q24.84 7.27 26.50 7.34L26.50 7.34L26.50 7.34Q29.15 7.43 28.71 10.85L28.71 10.85L28.71 10.85Q28.59 11.41 28.15 11.65L28.15 11.65L28.15 11.65Q27.99 11.75 27.79 11.73L27.79 11.73ZM23.83 10.58L23.83 10.58L23.83 10.58Q23.93 10.56 23.98 10.56L23.98 10.56L27.71 10.64L27.71 10.64Q27.66 8.47 25.70 8.40L25.70 8.40L25.70 8.40Q24.75 8.36 24.43 8.81L24.43 8.81L24.43 8.81Q24.01 9.37 23.83 10.58ZM38.02 15.44L32.94 15.44L32.94 15.44Q32.79 15.44 32.80 15.27L32.80 15.27L33.66 5.19L33.66 5.19Q33.67 5.04 33.84 4.82L33.84 4.82L33.84 4.82Q34.01 4.59 34.19 4.47L34.19 4.47L34.19 4.47Q34.37 4.34 34.48 4.31L34.48 4.31L34.48 4.31Q34.73 4.24 34.72 4.47L34.72 4.47L33.88 14.38L38.81 14.38L38.81 14.38Q39.02 14.38 38.92 14.64L38.92 14.64L38.92 14.64Q38.81 14.99 38.49 15.22L38.49 15.22L38.49 15.22Q38.18 15.44 38.02 15.44L38.02 15.44ZM46.52 13.96L46.52 13.96L46.52 13.96Q46.69 13.93 46.72 14.06L46.72 14.06L46.72 14.06Q46.75 14.20 46.60 14.42L46.60 14.42L46.60 14.42Q46.45 14.64 46.10 14.92L46.10 14.92L46.10 14.92Q45.75 15.20 45.36 15.36L45.36 15.36L45.36 15.36Q44.59 15.67 44.41 15.08L44.41 15.08L44.41 15.08Q44.32 14.84 44.34 14.20L44.34 14.20L44.34 14.20Q43.61 15.08 42.87 15.34L42.87 15.34L42.87 15.34Q42.13 15.61 41.48 15.43L41.48 15.43L41.48 15.43Q39.48 14.87 40.28 10.81L40.28 10.81L40.28 10.81Q40.54 9.46 41.22 8.60L41.22 8.60L41.22 8.60Q42.36 7.11 44.03 7.34L44.03 7.34L44.03 7.34Q44.73 7.42 45.12 7.85L45.12 7.85L45.12 7.85Q45.44 7.42 45.79 7.34L45.79 7.34L45.79 7.34Q45.91 7.31 45.97 7.36L45.97 7.36L45.97 7.36Q46.03 7.41 46.02 7.52L46.02 7.52L46.02 7.52Q45.21 13.44 45.44 14.18L45.44 14.18L45.44 14.18Q45.56 14.52 45.81 14.39L45.81 14.39L45.81 14.39Q45.92 14.34 46.13 14.16L46.13 14.16L46.13 14.16Q46.34 13.99 46.52 13.96ZM44.41 12.80L44.41 12.80L44.41 12.80Q44.51 11.68 44.55 11.37L44.55 11.37L44.55 11.37Q44.91 8.62 43.19 8.40L43.19 8.40L43.19 8.40Q42.77 8.34 42.46 8.41L42.46 8.41L42.46 8.41Q42.04 8.50 41.89 8.68L41.89 8.68L41.89 8.68Q41.54 9.13 41.31 10.28L41.31 10.28L41.31 10.28Q41.09 11.42 41.12 12.31L41.12 12.31L41.12 12.31Q41.20 14.04 42.35 14.36L42.35 14.36L42.35 14.36Q43.23 14.62 43.71 14.04L43.71 14.04L43.71 14.04Q44.06 13.62 44.41 12.80ZM48.33 8.22L48.33 8.22Q48.34 8.06 48.51 7.84L48.51 7.84L48.51 7.84Q48.68 7.62 48.86 7.50L48.86 7.50L48.86 7.50Q49.04 7.38 49.17 7.35L49.17 7.35L49.17 7.35Q49.42 7.29 49.39 7.50L49.39 7.50L49.29 8.43L49.29 8.43Q49.69 7.98 50.25 7.66L50.25 7.66L50.25 7.66Q50.81 7.34 51.39 7.34L51.39 7.34L51.39 7.34Q53.79 7.31 53.44 10.63L53.44 10.63L53.10 14.55L53.10 14.55Q53.09 14.70 52.92 14.92L52.92 14.92L52.92 14.92Q52.75 15.15 52.57 15.27L52.57 15.27L52.57 15.27Q52.39 15.40 52.28 15.43L52.28 15.43L52.28 15.43Q52.02 15.50 52.04 15.27L52.04 15.27L52.37 11.35L52.37 11.35Q52.70 8.39 50.64 8.40L50.64 8.40L50.64 8.40Q50.23 8.40 50.04 8.51L50.04 8.51L50.04 8.51Q49.55 8.79 49.13 10.05L49.13 10.05L49.13 10.05Q49.13 10.07 49.13 10.09L49.13 10.09L48.65 14.56L48.65 14.56Q48.64 14.73 48.47 14.95L48.47 14.95L48.47 14.95Q48.30 15.16 48.12 15.28L48.12 15.28L48.12 15.28Q47.94 15.40 47.81 15.43L47.81 15.43L47.81 15.43Q47.56 15.48 47.59 15.26L47.59 15.26L48.33 8.22ZM55.36 8.22L55.36 8.22Q55.37 8.06 55.54 7.84L55.54 7.84L55.54 7.84Q55.71 7.62 55.89 7.50L55.89 7.50L55.89 7.50Q56.07 7.38 56.20 7.35L56.20 7.35L56.20 7.35Q56.45 7.29 56.42 7.50L56.42 7.50L55.68 14.56L55.68 14.56Q55.66 14.73 55.50 14.95L55.50 14.95L55.50 14.95Q55.33 15.16 55.15 15.28L55.15 15.28L55.15 15.28Q54.96 15.40 54.84 15.43L54.84 15.43L54.84 15.43Q54.59 15.48 54.61 15.26L54.61 15.26L55.36 8.22ZM55.43 5.81L55.43 5.81Q55.44 5.66 55.60 5.43L55.60 5.43L55.60 5.43Q55.76 5.21 55.94 5.08L55.94 5.08L55.94 5.08Q56.13 4.96 56.25 4.93L56.25 4.93L56.25 4.93Q56.50 4.86 56.49 5.08L56.49 5.08L56.42 6.06L56.42 6.06Q56.41 6.22 56.25 6.44L56.25 6.44L56.25 6.44Q56.08 6.66 55.90 6.79L55.90 6.79L55.90 6.79Q55.72 6.92 55.59 6.94L55.59 6.94L55.59 6.94Q55.34 7.01 55.36 6.79L55.36 6.79L55.43 5.81ZM62.57 11.73L58.51 11.63L58.51 11.63Q58.45 14.22 60.76 14.38L60.76 14.38L60.76 14.38Q61.25 14.42 61.64 14.35L61.64 14.35L61.64 14.35Q62.15 14.27 62.20 14.15L62.20 14.15L62.20 14.15Q62.31 13.94 62.53 13.75L62.53 13.75L62.53 13.75Q62.75 13.55 62.93 13.49L62.93 13.49L62.93 13.49Q63.11 13.43 63.18 13.54L63.18 13.54L63.18 13.54Q63.28 13.72 62.92 14.20L62.92 14.20L62.92 14.20Q62.55 14.67 62.17 14.95L62.17 14.95L62.17 14.95Q61.78 15.22 61.42 15.32L61.42 15.32L61.42 15.32Q60.61 15.54 59.95 15.44L59.95 15.44L59.95 15.44Q57.19 15.26 57.47 11.96L57.47 11.96L57.47 11.96Q57.55 10.93 57.78 10.18L57.78 10.18L57.78 10.18Q58.00 9.44 58.49 8.78L58.49 8.78L58.49 8.78Q59.61 7.27 61.28 7.34L61.28 7.34L61.28 7.34Q63.92 7.43 63.49 10.85L63.49 10.85L63.49 10.85Q63.36 11.41 62.93 11.65L62.93 11.65L62.93 11.65Q62.76 11.75 62.57 11.73L62.57 11.73ZM58.60 10.58L58.60 10.58L58.60 10.58Q58.70 10.56 58.76 10.56L58.76 10.56L62.48 10.64L62.48 10.64Q62.44 8.47 60.48 8.40L60.48 8.40L60.48 8.40Q59.53 8.36 59.21 8.81L59.21 8.81L59.21 8.81Q58.79 9.37 58.60 10.58ZM65.38 8.22L65.38 8.22Q65.39 8.06 65.56 7.84L65.56 7.84L65.56 7.84Q65.73 7.62 65.91 7.50L65.91 7.50L65.91 7.50Q66.09 7.38 66.22 7.35L66.22 7.35L66.22 7.35Q66.47 7.29 66.44 7.50L66.44 7.50L66.37 8.12L66.37 8.12Q67.45 7.21 68.60 7.34L68.60 7.34L68.60 7.34Q68.80 7.36 68.70 7.63L68.70 7.63L68.70 7.63Q68.56 7.99 68.24 8.20L68.24 8.20L68.24 8.20Q67.91 8.41 67.79 8.40L67.79 8.40L67.79 8.40Q67.07 8.32 66.57 8.69L66.57 8.69L66.57 8.69Q66.33 8.88 66.23 9.55L66.23 9.55L65.70 14.56L65.70 14.56Q65.69 14.73 65.52 14.95L65.52 14.95L65.52 14.95Q65.35 15.16 65.17 15.28L65.17 15.28L65.17 15.28Q64.99 15.40 64.86 15.43L64.86 15.43L64.86 15.43Q64.61 15.48 64.64 15.26L64.64 15.26L65.16 10.36L65.16 10.36Q65.16 10.33 65.17 10.25L65.17 10.25L65.38 8.22ZM83.69 4.67L83.69 4.67L83.69 4.67Q83.89 4.45 84.09 4.35L84.09 4.35L84.09 4.35Q84.29 4.26 84.39 4.32L84.39 4.32L84.39 4.32Q84.49 4.38 84.42 4.58L84.42 4.58L80.75 14.66L80.29 15.15L80.29 15.15Q79.77 15.62 79.72 15.34L79.72 15.34L78.09 8.12L75.42 14.69L74.97 15.18L74.97 15.18Q74.45 15.67 74.40 15.33L74.40 15.33L72.44 5.25L72.44 5.25Q72.41 5.12 72.55 4.90L72.55 4.90L72.55 4.90Q72.69 4.68 72.91 4.51L72.91 4.51L72.91 4.51Q73.12 4.34 73.30 4.30L73.30 4.30L73.30 4.30Q73.47 4.27 73.50 4.40L73.50 4.40L75.21 13.22L77.85 6.71L77.85 6.71Q77.99 6.37 78.25 6.20L78.25 6.20L78.25 6.20Q78.50 6.03 78.68 6.05L78.68 6.05L78.88 6.05L80.47 13.15L83.41 5.08L83.41 5.08Q83.48 4.89 83.69 4.67ZM89.91 11.73L85.85 11.63L85.85 11.63Q85.79 14.22 88.10 14.38L88.10 14.38L88.10 14.38Q88.59 14.42 88.98 14.35L88.98 14.35L88.98 14.35Q89.49 14.27 89.54 14.15L89.54 14.15L89.54 14.15Q89.66 13.94 89.87 13.75L89.87 13.75L89.87 13.75Q90.09 13.55 90.27 13.49L90.27 13.49L90.27 13.49Q90.45 13.43 90.52 13.54L90.52 13.54L90.52 13.54Q90.62 13.72 90.26 14.20L90.26 14.20L90.26 14.20Q89.89 14.67 89.51 14.95L89.51 14.95L89.51 14.95Q89.12 15.22 88.76 15.32L88.76 15.32L88.76 15.32Q87.95 15.54 87.29 15.44L87.29 15.44L87.29 15.44Q84.53 15.26 84.81 11.96L84.81 11.96L84.81 11.96Q84.90 10.93 85.12 10.18L85.12 10.18L85.12 10.18Q85.34 9.44 85.83 8.78L85.83 8.78L85.83 8.78Q86.95 7.27 88.62 7.34L88.62 7.34L88.62 7.34Q91.27 7.43 90.83 10.85L90.83 10.85L90.83 10.85Q90.71 11.41 90.27 11.65L90.27 11.65L90.27 11.65Q90.10 11.75 89.91 11.73L89.91 11.73ZM85.95 10.58L85.95 10.58L85.95 10.58Q86.04 10.56 86.10 10.56L86.10 10.56L89.82 10.64L89.82 10.64Q89.78 8.47 87.82 8.40L87.82 8.40L87.82 8.40Q86.87 8.36 86.55 8.81L86.55 8.81L86.55 8.81Q86.13 9.37 85.95 10.58ZM94.85 15.44L94.85 15.44L94.85 15.44Q93.66 15.44 93.02 14.63L93.02 14.63L93.02 14.63Q92.97 14.77 92.83 14.96L92.83 14.96L92.83 14.96Q92.68 15.15 92.50 15.27L92.50 15.27L92.50 15.27Q92.32 15.40 92.20 15.43L92.20 15.43L92.20 15.43Q91.95 15.50 91.97 15.27L91.97 15.27L92.95 4.09L92.95 4.09Q92.96 3.93 93.13 3.71L93.13 3.71L93.13 3.71Q93.30 3.49 93.48 3.36L93.48 3.36L93.48 3.36Q93.66 3.23 93.77 3.21L93.77 3.21L93.77 3.21Q94.02 3.14 94.01 3.36L94.01 3.36L93.60 8.02L93.60 8.02Q94.36 7.32 95.27 7.34L95.27 7.34L95.27 7.34Q97.05 7.35 97.71 8.40L97.71 8.40L97.71 8.40Q98.36 9.45 97.93 11.35L97.93 11.35L97.93 11.35Q97.50 13.24 96.82 14.20L96.82 14.20L96.82 14.20Q96.38 14.81 95.84 15.13L95.84 15.13L95.84 15.13Q95.30 15.44 94.85 15.44ZM93.35 10.82L93.31 11.40L93.31 11.40Q93.31 11.41 93.31 11.42L93.31 11.42L93.31 11.42Q93.55 14.38 95.63 14.38L95.63 14.38L95.63 14.38Q95.93 14.38 95.98 14.33L95.98 14.33L95.98 14.33Q96.03 14.28 96.05 14.24L96.05 14.24L96.08 14.20L96.08 14.20Q96.52 13.59 96.85 12.14L96.85 12.14L96.85 12.14Q97.27 10.26 96.69 9.34L96.69 9.34L96.69 9.34Q96.11 8.41 94.49 8.40L94.49 8.40L94.49 8.40Q94.08 8.40 93.88 8.53L93.88 8.53L93.88 8.53Q93.70 8.75 93.56 9.43L93.56 9.43L93.56 9.43Q93.42 10.11 93.41 10.42L93.41 10.42L93.41 10.42Q93.39 10.74 93.35 10.82L93.35 10.82ZM101.99 15.27L101.99 15.27L102.97 5.19L102.97 5.19Q103.05 4.66 103.49 4.41L103.49 4.41L103.49 4.41Q103.66 4.31 103.87 4.30L103.87 4.30L103.87 4.30Q110.22 3.92 110.05 9.49L110.05 9.49L110.05 9.49Q109.98 11.59 108.89 13.05L108.89 13.05L108.89 13.05Q107.79 14.52 106.11 15.05L106.11 15.05L106.11 15.05Q104.43 15.58 102.12 15.44L102.12 15.44L102.12 15.44Q101.98 15.44 101.99 15.27ZM103.95 5.33L103.07 14.39L103.07 14.39Q105.11 14.50 106.41 14.08L106.41 14.08L106.41 14.08Q107.72 13.65 108.21 12.98L108.21 12.98L108.21 12.98Q108.92 12.01 108.99 10.25L108.99 10.25L108.99 10.25Q109.06 7.81 107.81 6.59L107.81 6.59L107.81 6.59Q106.57 5.36 103.95 5.33L103.95 5.33ZM116.34 11.73L112.28 11.63L112.28 11.63Q112.22 14.22 114.53 14.38L114.53 14.38L114.53 14.38Q115.02 14.42 115.42 14.35L115.42 14.35L115.42 14.35Q115.92 14.27 115.98 14.15L115.98 14.15L115.98 14.15Q116.09 13.94 116.31 13.75L116.31 13.75L116.31 13.75Q116.52 13.55 116.70 13.49L116.70 13.49L116.70 13.49Q116.89 13.43 116.96 13.54L116.96 13.54L116.96 13.54Q117.05 13.72 116.69 14.20L116.69 14.20L116.69 14.20Q116.33 14.67 115.94 14.95L115.94 14.95L115.94 14.95Q115.56 15.22 115.19 15.32L115.19 15.32L115.19 15.32Q114.38 15.54 113.72 15.44L113.72 15.44L113.72 15.44Q110.96 15.26 111.24 11.96L111.24 11.96L111.24 11.96Q111.33 10.93 111.55 10.18L111.55 10.18L111.55 10.18Q111.78 9.44 112.27 8.78L112.27 8.78L112.27 8.78Q113.39 7.27 115.05 7.34L115.05 7.34L115.05 7.34Q117.70 7.43 117.26 10.85L117.26 10.85L117.26 10.85Q117.14 11.41 116.70 11.65L116.70 11.65L116.70 11.65Q116.54 11.75 116.34 11.73L116.34 11.73ZM112.38 10.58L112.38 10.58L112.38 10.58Q112.48 10.56 112.53 10.56L112.53 10.56L116.26 10.64L116.26 10.64Q116.21 8.47 114.25 8.40L114.25 8.40L114.25 8.40Q113.30 8.36 112.98 8.81L112.98 8.81L112.98 8.81Q112.56 9.37 112.38 10.58ZM118.71 7.96L118.71 7.96L118.71 7.96Q118.85 7.74 119.06 7.56L119.06 7.56L119.06 7.56Q119.27 7.38 119.45 7.34L119.45 7.34L119.45 7.34Q119.63 7.31 119.67 7.42L119.67 7.42L121.35 13.41L123.61 8.08L123.61 8.08Q123.69 7.88 123.89 7.67L123.89 7.67L123.89 7.67Q124.10 7.46 124.30 7.38L124.30 7.38L124.30 7.38Q124.50 7.29 124.59 7.37L124.59 7.37L124.59 7.37Q124.67 7.45 124.59 7.66L124.59 7.66L121.62 14.70L121.62 14.70Q121.41 15.19 120.92 15.40L120.92 15.40L120.92 15.40Q120.64 15.53 120.60 15.34L120.60 15.34L118.61 8.30L118.61 8.30Q118.58 8.18 118.71 7.96ZM130.62 11.73L126.56 11.63L126.56 11.63Q126.50 14.22 128.81 14.38L128.81 14.38L128.81 14.38Q129.30 14.42 129.70 14.35L129.70 14.35L129.70 14.35Q130.20 14.27 130.26 14.15L130.26 14.15L130.26 14.15Q130.37 13.94 130.59 13.75L130.59 13.75L130.59 13.75Q130.80 13.55 130.98 13.49L130.98 13.49L130.98 13.49Q131.17 13.43 131.24 13.54L131.24 13.54L131.24 13.54Q131.33 13.72 130.97 14.20L130.97 14.20L130.97 14.20Q130.61 14.67 130.22 14.95L130.22 14.95L130.22 14.95Q129.84 15.22 129.47 15.32L129.47 15.32L129.47 15.32Q128.66 15.54 128.00 15.44L128.00 15.44L128.00 15.44Q125.24 15.26 125.52 11.96L125.52 11.96L125.52 11.96Q125.61 10.93 125.83 10.18L125.83 10.18L125.83 10.18Q126.06 9.44 126.55 8.78L126.55 8.78L126.55 8.78Q127.67 7.27 129.33 7.34L129.33 7.34L129.33 7.34Q131.98 7.43 131.54 10.85L131.54 10.85L131.54 10.85Q131.42 11.41 130.98 11.65L130.98 11.65L130.98 11.65Q130.82 11.75 130.62 11.73L130.62 11.73ZM126.66 10.58L126.66 10.58L126.66 10.58Q126.76 10.56 126.81 10.56L126.81 10.56L130.54 10.64L130.54 10.64Q130.49 8.47 128.53 8.40L128.53 8.40L128.53 8.40Q127.58 8.36 127.26 8.81L127.26 8.81L127.26 8.81Q126.84 9.37 126.66 10.58ZM133.67 4.02L133.67 4.02Q133.69 3.85 133.85 3.63L133.85 3.63L133.85 3.63Q134.02 3.40 134.20 3.28L134.20 3.28L134.20 3.28Q134.39 3.16 134.50 3.14L134.50 3.14L134.50 3.14Q134.75 3.07 134.74 3.29L134.74 3.29L133.70 14.55L133.70 14.55Q133.69 14.70 133.52 14.93L133.52 14.93L133.52 14.93Q133.35 15.16 133.17 15.28L133.17 15.28L133.17 15.28Q132.99 15.40 132.87 15.43L132.87 15.43L132.87 15.43Q132.62 15.50 132.64 15.27L132.64 15.27L133.67 4.02ZM139.55 7.34L139.55 7.34L139.55 7.34Q142.13 7.56 141.62 11.55L141.62 11.55L141.62 11.55Q141.41 13.15 140.69 14.11L140.69 14.11L140.69 14.11Q139.57 15.60 137.90 15.44L137.90 15.44L137.90 15.44Q135.07 15.19 135.51 11.80L135.51 11.80L135.51 11.80Q135.63 10.84 135.88 10.11L135.88 10.11L135.88 10.11Q136.12 9.38 136.61 8.75L136.61 8.75L136.61 8.75Q137.80 7.18 139.55 7.34ZM138.74 8.40L138.74 8.40L138.74 8.40Q137.68 8.30 137.30 8.81L137.30 8.81L137.30 8.81Q137.09 9.07 136.88 9.68L136.88 9.68L136.88 9.68Q136.67 10.29 136.57 11.10L136.57 11.10L136.57 11.10Q136.18 14.15 138.71 14.38L138.71 14.38L138.71 14.38Q139.68 14.46 139.99 14.06L139.99 14.06L139.99 14.06Q140.14 13.85 140.31 13.36L140.31 13.36L140.31 13.36Q140.48 12.88 140.56 12.25L140.56 12.25L140.56 12.25Q141.04 8.60 138.74 8.40ZM143.42 8.20L143.42 8.20Q143.43 8.04 143.60 7.82L143.60 7.82L143.60 7.82Q143.77 7.60 143.95 7.48L143.95 7.48L143.95 7.48Q144.13 7.35 144.24 7.32L144.24 7.32L144.24 7.32Q144.49 7.25 144.48 7.48L144.48 7.48L144.42 8.12L144.42 8.12Q145.26 7.32 146.41 7.34L146.41 7.34L146.41 7.34Q149.88 7.36 148.93 11.56L148.93 11.56L148.93 11.56Q148.57 13.16 147.99 13.96L147.99 13.96L147.99 13.96Q147.42 14.76 146.82 15.10L146.82 15.10L146.82 15.10Q146.22 15.44 145.68 15.44L145.68 15.44L145.68 15.44Q144.49 15.44 143.85 14.63L143.85 14.63L143.85 14.63Q143.85 14.63 143.50 18.66L143.50 18.66L143.50 18.66Q143.49 18.82 143.32 19.04L143.32 19.04L143.32 19.04Q143.15 19.26 142.97 19.39L142.97 19.39L142.97 19.39Q142.79 19.52 142.67 19.54L142.67 19.54L142.67 19.54Q142.42 19.61 142.44 19.39L142.44 19.39L143.42 8.20ZM144.19 10.79L144.14 11.38L144.14 11.38Q144.14 11.40 144.14 11.42L144.14 11.42L144.14 11.42Q144.38 14.38 146.47 14.38L146.47 14.38L146.47 14.38Q146.92 14.38 147.06 14.22L147.06 14.22L147.06 14.22Q147.55 13.72 147.93 12.00L147.93 12.00L147.93 12.00Q148.32 10.29 147.76 9.35L147.76 9.35L147.76 9.35Q147.20 8.41 145.63 8.40L145.63 8.40L145.63 8.40Q144.89 8.40 144.71 8.64L144.71 8.64L144.71 8.64Q144.54 8.88 144.39 9.41L144.39 9.41L144.39 9.41Q144.24 9.95 144.23 10.34L144.23 10.34L144.23 10.34Q144.21 10.72 144.19 10.79L144.19 10.79ZM150.92 8.22L150.92 8.22Q150.93 8.06 151.10 7.84L151.10 7.84L151.10 7.84Q151.27 7.62 151.45 7.50L151.45 7.50L151.45 7.50Q151.63 7.38 151.76 7.35L151.76 7.35L151.76 7.35Q152.01 7.29 151.98 7.50L151.98 7.50L151.89 8.43L151.89 8.43Q152.28 7.98 152.84 7.66L152.84 7.66L152.84 7.66Q153.40 7.34 153.99 7.34L153.99 7.34L153.99 7.34Q155.36 7.32 155.69 8.71L155.69 8.71L155.69 8.71Q156.18 8.06 156.81 7.70L156.81 7.70L156.81 7.70Q157.44 7.34 158.03 7.34L158.03 7.34L158.03 7.34Q160.01 7.31 159.66 10.63L159.66 10.63L159.32 14.55L159.32 14.55Q159.31 14.70 159.14 14.92L159.14 14.92L159.14 14.92Q158.97 15.15 158.79 15.27L158.79 15.27L158.79 15.27Q158.61 15.40 158.49 15.43L158.49 15.43L158.49 15.43Q158.24 15.50 158.26 15.27L158.26 15.27L158.59 11.35L158.59 11.35Q158.91 8.39 157.28 8.40L157.28 8.40L157.28 8.40Q156.87 8.40 156.67 8.51L156.67 8.51L156.67 8.51Q156.20 8.79 155.79 9.98L155.79 9.98L155.79 9.98Q155.78 10.29 155.75 10.63L155.75 10.63L155.41 14.55L155.41 14.55Q155.40 14.70 155.23 14.92L155.23 14.92L155.23 14.92Q155.06 15.15 154.88 15.27L154.88 15.27L154.88 15.27Q154.70 15.40 154.59 15.43L154.59 15.43L154.59 15.43Q154.34 15.50 154.35 15.27L154.35 15.27L154.69 11.35L154.69 11.35Q154.71 11.03 154.71 10.86L154.71 10.86L154.71 10.86Q154.71 10.70 154.73 10.64L154.73 10.64L154.73 10.64Q154.77 8.37 153.23 8.40L153.23 8.40L153.23 8.40Q152.82 8.40 152.63 8.51L152.63 8.51L152.63 8.51Q152.14 8.79 151.72 10.05L151.72 10.05L151.72 10.05Q151.72 10.07 151.72 10.09L151.72 10.09L151.24 14.56L151.24 14.56Q151.23 14.73 151.06 14.95L151.06 14.95L151.06 14.95Q150.89 15.16 150.71 15.28L150.71 15.28L150.71 15.28Q150.53 15.40 150.40 15.43L150.40 15.43L150.40 15.43Q150.15 15.48 150.18 15.26L150.18 15.26L150.92 8.22ZM166.26 11.73L162.20 11.63L162.20 11.63Q162.15 14.22 164.46 14.38L164.46 14.38L164.46 14.38Q164.95 14.42 165.34 14.35L165.34 14.35L165.34 14.35Q165.84 14.27 165.90 14.15L165.90 14.15L165.90 14.15Q166.01 13.94 166.23 13.75L166.23 13.75L166.23 13.75Q166.45 13.55 166.63 13.49L166.63 13.49L166.63 13.49Q166.81 13.43 166.88 13.54L166.88 13.54L166.88 13.54Q166.98 13.72 166.61 14.20L166.61 14.20L166.61 14.20Q166.25 14.67 165.87 14.95L165.87 14.95L165.87 14.95Q165.48 15.22 165.12 15.32L165.12 15.32L165.12 15.32Q164.30 15.54 163.65 15.44L163.65 15.44L163.65 15.44Q160.89 15.26 161.17 11.96L161.17 11.96L161.17 11.96Q161.25 10.93 161.48 10.18L161.48 10.18L161.48 10.18Q161.70 9.44 162.19 8.78L162.19 8.78L162.19 8.78Q163.31 7.27 164.98 7.34L164.98 7.34L164.98 7.34Q167.62 7.43 167.19 10.85L167.19 10.85L167.19 10.85Q167.06 11.41 166.63 11.65L166.63 11.65L166.63 11.65Q166.46 11.75 166.26 11.73L166.26 11.73ZM162.30 10.58L162.30 10.58L162.30 10.58Q162.40 10.56 162.46 10.56L162.46 10.56L166.18 10.64L166.18 10.64Q166.14 8.47 164.18 8.40L164.18 8.40L164.18 8.40Q163.23 8.36 162.90 8.81L162.90 8.81L162.90 8.81Q162.48 9.37 162.30 10.58ZM169.08 8.22L169.08 8.22Q169.09 8.06 169.26 7.84L169.26 7.84L169.26 7.84Q169.43 7.62 169.61 7.50L169.61 7.50L169.61 7.50Q169.79 7.38 169.92 7.35L169.92 7.35L169.92 7.35Q170.17 7.29 170.14 7.50L170.14 7.50L170.04 8.43L170.04 8.43Q170.44 7.98 171.00 7.66L171.00 7.66L171.00 7.66Q171.56 7.34 172.14 7.34L172.14 7.34L172.14 7.34Q174.54 7.31 174.19 10.63L174.19 10.63L173.85 14.55L173.85 14.55Q173.84 14.70 173.67 14.92L173.67 14.92L173.67 14.92Q173.50 15.15 173.32 15.27L173.32 15.27L173.32 15.27Q173.14 15.40 173.03 15.43L173.03 15.43L173.03 15.43Q172.77 15.50 172.79 15.27L172.79 15.27L173.12 11.35L173.12 11.35Q173.45 8.39 171.39 8.40L171.39 8.40L171.39 8.40Q170.98 8.40 170.79 8.51L170.79 8.51L170.79 8.51Q170.30 8.79 169.88 10.05L169.88 10.05L169.88 10.05Q169.88 10.07 169.88 10.09L169.88 10.09L169.40 14.56L169.40 14.56Q169.39 14.73 169.22 14.95L169.22 14.95L169.22 14.95Q169.05 15.16 168.87 15.28L168.87 15.28L168.87 15.28Q168.69 15.40 168.56 15.43L168.56 15.43L168.56 15.43Q168.31 15.48 168.34 15.26L168.34 15.26L169.08 8.22ZM179.19 13.77L179.19 13.77L179.19 13.77Q179.37 13.73 179.40 13.87L179.40 13.87L179.40 13.87Q179.42 14 179.28 14.22L179.28 14.22L179.28 14.22Q179.14 14.43 178.74 14.76L178.74 14.76L178.74 14.76Q178.33 15.09 177.84 15.30L177.84 15.30L177.84 15.30Q176.88 15.69 176.40 15.11L176.40 15.11L176.40 15.11Q175.95 14.59 176.16 13.13L176.16 13.13L176.53 8.92L175.46 8.92L175.46 8.92Q175.25 8.92 175.35 8.65L175.35 8.65L175.35 8.65Q175.46 8.30 175.78 8.07L175.78 8.07L175.78 8.07Q176.09 7.84 176.25 7.84L176.25 7.84L176.62 7.84L176.83 5.45L176.83 5.45Q176.85 5.29 177.02 5.07L177.02 5.07L177.02 5.07Q177.18 4.84 177.37 4.72L177.37 4.72L177.37 4.72Q177.55 4.59 177.66 4.56L177.66 4.56L177.66 4.56Q177.91 4.49 177.90 4.72L177.90 4.72L177.63 7.84L177.63 7.84Q178.25 7.84 178.85 7.84L178.85 7.84L178.85 7.84Q179.06 7.84 178.96 8.12L178.96 8.12L178.96 8.12Q178.85 8.47 178.54 8.69L178.54 8.69L178.54 8.69Q178.22 8.92 178.07 8.92L178.07 8.92L177.53 8.92L177.23 12.42L177.23 12.42Q177.23 12.43 177.23 12.45L177.23 12.45L177.23 12.45Q177.03 13.71 177.41 14.13L177.41 14.13L177.41 14.13Q177.76 14.56 178.26 14.34L178.26 14.34L178.26 14.34Q178.50 14.22 178.76 14.01L178.76 14.01L178.76 14.01Q179.02 13.80 179.19 13.77ZM188.71 15.44L183.62 15.44L183.62 15.44Q183.47 15.44 183.48 15.27L183.48 15.27L184.34 5.19L184.34 5.19Q184.35 5.04 184.52 4.82L184.52 4.82L184.52 4.82Q184.69 4.59 184.87 4.47L184.87 4.47L184.87 4.47Q185.05 4.34 185.16 4.31L185.16 4.31L185.16 4.31Q185.42 4.24 185.40 4.47L185.40 4.47L184.56 14.38L189.49 14.38L189.49 14.38Q189.70 14.38 189.60 14.64L189.60 14.64L189.60 14.64Q189.49 14.99 189.18 15.22L189.18 15.22L189.18 15.22Q188.86 15.44 188.71 15.44L188.71 15.44ZM196.28 15.44L191.20 15.44L191.20 15.44Q191.04 15.44 191.06 15.27L191.06 15.27L191.91 5.19L191.91 5.19Q191.93 5.04 192.09 4.82L192.09 4.82L192.09 4.82Q192.26 4.59 192.44 4.47L192.44 4.47L192.44 4.47Q192.63 4.34 192.74 4.31L192.74 4.31L192.74 4.31Q192.99 4.24 192.98 4.47L192.98 4.47L192.14 14.38L197.06 14.38L197.06 14.38Q197.27 14.38 197.18 14.64L197.18 14.64L197.18 14.64Q197.06 14.99 196.75 15.22L196.75 15.22L196.75 15.22Q196.43 15.44 196.28 15.44L196.28 15.44ZM206.85 7.31L206.85 7.31Q206.84 7.48 206.67 7.70L206.67 7.70L206.67 7.70Q206.50 7.92 206.32 8.04L206.32 8.04L206.32 8.04Q206.14 8.16 206.02 8.19L206.02 8.19L206.02 8.19Q205.77 8.26 205.79 8.04L205.79 8.04L205.79 8.04Q205.84 7.45 205.60 6.88L205.60 6.88L205.60 6.88Q205.35 6.31 204.86 5.94L204.86 5.94L204.86 5.94Q204.37 5.56 203.78 5.45L203.78 5.45L203.78 5.45Q203.18 5.33 202.62 5.49L202.62 5.49L202.62 5.49Q200.87 5.96 200.19 8.92L200.19 8.92L200.19 8.92Q199.67 11.14 200.47 12.63L200.47 12.63L200.47 12.63Q200.91 13.47 201.71 13.94L201.71 13.94L201.71 13.94Q202.51 14.41 203.41 14.38L203.41 14.38L203.41 14.38Q204.32 14.35 204.88 13.96L204.88 13.96L204.88 13.96Q205.44 13.57 205.67 12.92L205.67 12.92L205.67 12.92Q205.76 12.73 205.96 12.52L205.96 12.52L205.96 12.52Q206.16 12.31 206.37 12.21L206.37 12.21L206.37 12.21Q206.57 12.12 206.66 12.20L206.66 12.20L206.66 12.20Q206.75 12.28 206.68 12.47L206.68 12.47L206.68 12.47Q206.44 13.06 205.99 13.64L205.99 13.64L205.99 13.64Q205.53 14.22 204.93 14.64L204.93 14.64L204.93 14.64Q203.87 15.40 202.76 15.44L202.76 15.44L202.76 15.44Q201.64 15.47 200.78 14.97L200.78 14.97L200.78 14.97Q199.92 14.46 199.44 13.58L199.44 13.58L199.44 13.58Q198.58 11.96 199.15 9.53L199.15 9.53L199.15 9.53Q199.79 6.75 201.64 5.28L201.64 5.28L201.64 5.28Q203.11 4.12 204.61 4.38L204.61 4.38L204.61 4.38Q205.30 4.51 205.83 4.93L205.83 4.93L205.83 4.93Q206.36 5.35 206.64 5.98L206.64 5.98L206.64 5.98Q206.92 6.61 206.85 7.31L206.85 7.31Z"></path></g><!----><g data-v-423bf9ae="" id="8b9ddaab-c470-4434-b308-808b3119530a" transform="matrix(1.2,0,0,1.2,-0.5999999999999943,-15.599999999999994)" stroke="none" fill="#085B20"><path d="M90 82h-4v-2h4c1.654 0 3-1.346 3-3V18c0-1.654-1.346-3-3-3H6c-1.654 0-3 1.346-3 3v59c0 1.654 1.346 3 3 3h46v2H6c-2.757 0-5-2.243-5-5V18c0-2.757 2.243-5 5-5h84c2.757 0 5 2.243 5 5v59c0 2.757-2.243 5-5 5z"></path><path d="M2 26h91v2H2zM10.5 22c-.827 0-1.5-.673-1.5-1.5s.673-1.5 1.5-1.5 1.5.673 1.5 1.5-.673 1.5-1.5 1.5zm0-2a.5.5 0 1 0 0 1 .5.5 0 0 0 0-1zM17.5 22c-.827 0-1.5-.673-1.5-1.5s.673-1.5 1.5-1.5 1.5.673 1.5 1.5-.673 1.5-1.5 1.5zm0-2a.5.5 0 1 0 0 1 .5.5 0 0 0 0-1zM24.5 22c-.827 0-1.5-.673-1.5-1.5s.673-1.5 1.5-1.5 1.5.673 1.5 1.5-.673 1.5-1.5 1.5zm0-2a.5.5 0 1 0 0 1 .5.5 0 0 0 0-1zM77 88H61c-2.757 0-5-2.243-5-5V48c0-2.757 2.243-5 5-5h16c2.757 0 5 2.243 5 5v35c0 2.757-2.243 5-5 5zM61 45c-1.654 0-3 1.346-3 3v35c0 1.654 1.346 3 3 3h16c1.654 0 3-1.346 3-3V48c0-1.654-1.346-3-3-3H61z"></path><path d="M81 53H57a1 1 0 0 1 0-2h24a1 1 0 0 1 0 2zM81 80H57a1 1 0 0 1 0-2h24a1 1 0 0 1 0 2z"></path></g><!----></svg>